# Made in Blockbench 4.10.3
mtllib Cadeira.mtl

o cuboid
v 0.25 0.375 0.25
v 0.25 0.375 -0.25
v 0.25 0 0.25
v 0.25 0 -0.25
v 0.1875 0.375 0.25
v 0.1875 0.375 -0.25
v 0.1875 0 -0.25
v 0.1875 0 0.25
v 0.1875 0.375 0.1875
v 0.25 0.375 0.1875
v 0.25 0 0.1875
v 0.1875 0 0.1875
v 0.1875 0.375 -0.1875
v 0.25 0.375 -0.1875
v 0.25 0 -0.1875
v 0.1875 0 -0.1875
v 0.1875 0.3125 0.25
v 0.25 0.3125 0.25
v 0.25 0.3125 0.1875
v 0.1875 0.3125 0.1875
v 0.1875 0.3125 -0.25
v 0.25 0.3125 -0.25
v 0.25 0.3125 -0.1875
v 0.1875 0.3125 -0.1875
v 0.15375 0.39375000000000016 0.15375
v 0.15375 0.39375000000000016 -0.15375
v 0.25 0.9375 0.25
v 0.1875 0.9375 0.1875
v 0.25 0.9375 0.1875
v 0.1875 0.9375 0.25
v 0.25 0.875 0.25
v 0.25 0.875 0.1875
v 0.1875 0.875 0.1875
v 0.1875 0.875 0.25
v -0.25 0.375 0.25
v -0.25 0.375 -0.25
v -0.25 0 0.25
v -0.25 0 -0.25
v -0.1875 0.375 0.25
v -0.1875 0.375 -0.25
v -0.1875 0 -0.25
v -0.1875 0 0.25
v -0.1875 0.375 0.1875
v -0.25 0.375 0.1875
v -0.25 0 0.1875
v -0.1875 0 0.1875
v -0.1875 0.375 -0.1875
v -0.25 0.375 -0.1875
v -0.25 0 -0.1875
v -0.1875 0 -0.1875
v -0.1875 0.3125 0.25
v -0.25 0.3125 0.25
v -0.25 0.3125 0.1875
v -0.1875 0.3125 0.1875
v -0.1875 0.3125 -0.25
v -0.25 0.3125 -0.25
v -0.25 0.3125 -0.1875
v -0.1875 0.3125 -0.1875
v -0.15375 0.39375000000000016 0.15375
v -0.15375 0.39375000000000016 -0.15375
v -0.25 0.9375 0.25
v -0.1875 0.9375 0.1875
v -0.25 0.9375 0.1875
v -0.1875 0.9375 0.25
v -0.25 0.875 0.25
v -0.25 0.875 0.1875
v -0.1875 0.875 0.1875
v -0.1875 0.875 0.25
v 0.11250000000000004 0.875 0.25
v 0.11250000000000004 0.875 0.1875
v 0.03750000000000003 0.875 0.25
v 0.03750000000000003 0.875 0.1875
v -0.03749999999999995 0.875 0.25
v -0.03749999999999995 0.875 0.1875
v -0.11249999999999998 0.875 0.25
v -0.11249999999999998 0.875 0.1875
v 0.11250000000000004 0.9375 0.1875
v 0.03750000000000003 0.9375 0.1875
v -0.03749999999999995 0.9375 0.1875
v -0.11249999999999998 0.9375 0.1875
v 0.11250000000000004 0.9375 0.25
v 0.03750000000000003 0.9375 0.25
v -0.03749999999999995 0.9375 0.25
v -0.11249999999999998 0.9375 0.25
v -0.03749999999999995 0.375 0.25
v -0.11249999999999998 0.375 0.25
v -0.11249999999999998 0.375 0.1875
v -0.03749999999999995 0.375 0.1875
v 0.11250000000000004 0.375 0.25
v 0.03750000000000003 0.375 0.25
v 0.03750000000000003 0.375 0.1875
v 0.11250000000000004 0.375 0.1875
vt 0.4296875 0.872571875
vt 0.4296875 0.888196875
vt 0.3359375 0.888196875
vt 0.3359375 0.872571875
vt 0.42125 0.8978484375
vt 0.42125 0.9747234375
vt 0.344375 0.9747234375
vt 0.344375 0.8978484375
vt 0.3359375 1
vt 0.3359375 0.984375
vt 0.4296875 0.984375
vt 0.4296875 1
vt 0.109375 0.84375
vt 0.125 0.84375
vt 0.125 0.859375
vt 0.109375 0.859375
vt 0.3125 0.84375
vt 0.3125 0.828125
vt 0.328125 0.828125
vt 0.328125 0.84375
vt 0.4465265625 0.8894109375
vt 0.4465265625 0.9831609375
vt 0.4309015625 0.9831609375
vt 0.4309015625 0.8894109375
vt 0.4309015625 0.9987859375
vt 0.4309015625 0.9831609375
vt 0.4465265625 0.9831609375
vt 0.4465265625 0.9987859375
vt 0.25 0.859375
vt 0.25 0.84375
vt 0.265625 0.84375
vt 0.265625 0.859375
vt 0.0625 0.8125
vt 0.0625 0.828125
vt 0.046875 0.828125
vt 0.046875 0.8125
vt 0.125 0.59375
vt 0.109375 0.59375
vt 0.109375 0.515625
vt 0.125 0.515625
vt 0.078125 0.828125
vt 0.078125 0.8125
vt 0.09375 0.8125
vt 0.09375 0.828125
vt 0.140625 0.84375
vt 0.15625 0.84375
vt 0.15625 0.859375
vt 0.140625 0.859375
vt 0.125 0.84375
vt 0.109375 0.84375
vt 0.109375 0.765625
vt 0.125 0.765625
vt 0.15625 0.84375
vt 0.140625 0.84375
vt 0.140625 0.765625
vt 0.15625 0.765625
vt 0.21875 0.5625
vt 0.203125 0.5625
vt 0.203125 0.484375
vt 0.21875 0.484375
vt 0.25 0.484375
vt 0.25 0.5625
vt 0.234375 0.5625
vt 0.234375 0.484375
vt 0.328125 0.75
vt 0.328125 0.828125
vt 0.3125 0.828125
vt 0.3125 0.75
vt 0.265625 0.765625
vt 0.265625 0.84375
vt 0.25 0.84375
vt 0.25 0.765625
vt 0.328125 0.484375
vt 0.328125 0.5625
vt 0.3125 0.5625
vt 0.3125 0.484375
vt 0.328125 0.828125
vt 0.421875 0.828125
vt 0.421875 0.84375
vt 0.328125 0.84375
vt 0.46875 0.6875
vt 0.46875 0.703125
vt 0.375 0.703125
vt 0.375 0.6875
vt 0.375 0.65625
vt 0.46875 0.65625
vt 0.46875 0.671875
vt 0.375 0.671875
vt 0.25 0.84375
vt 0.25 0.859375
vt 0.15625 0.859375
vt 0.15625 0.84375
vt 0.28125 0.546875
vt 0.296875 0.546875
vt 0.296875 0.640625
vt 0.28125 0.640625
vt 0.46875 0.625
vt 0.46875 0.640625
vt 0.375 0.640625
vt 0.375 0.625
vt 0.375 0.59375
vt 0.46875 0.59375
vt 0.46875 0.609375
vt 0.375 0.609375
vt 0 0.578125
vt 0.09375 0.578125
vt 0.09375 0.59375
vt 0 0.59375
vt 0.375 0.578125
vt 0.375 0.5625
vt 0.46875 0.5625
vt 0.46875 0.578125
vt 0.28125 1
vt 0.1875 1
vt 0.1875 0.90625
vt 0.28125 0.90625
vt 0.42125 0.9747234375
vt 0.42125 0.8978484375
vt 0.4309015625 0.8894109375
vt 0.4309015625 0.9831609375
vt 0.344375 0.9747234375
vt 0.42125 0.9747234375
vt 0.4296875 0.984375
vt 0.3359375 0.984375
vt 0.42125 0.8978484375
vt 0.344375 0.8978484375
vt 0.3359375 0.888196875
vt 0.4296875 0.888196875
vt 0.15625 0.859375
vt 0.15625 0.984375
vt 0.140625 0.984375
vt 0.140625 0.859375
vt 0.015625 0.609375
vt 0.015625 0.734375
vt 0 0.734375
vt 0 0.609375
vt 0.15625 0.625
vt 0.15625 0.75
vt 0.140625 0.75
vt 0.140625 0.625
vt 0.125 0.859375
vt 0.125 0.984375
vt 0.109375 0.984375
vt 0.109375 0.859375
vt 0.4375 0.71875
vt 0.4375 0.734375
vt 0.421875 0.734375
vt 0.421875 0.71875
vt 0.140625 1
vt 0.140625 0.984375
vt 0.15625 0.984375
vt 0.15625 1
vt 0 0.75
vt 0 0.734375
vt 0.015625 0.734375
vt 0.015625 0.75
vt 0.109375 1
vt 0.109375 0.984375
vt 0.125 0.984375
vt 0.125 1
vt 0 0.859375
vt 0 0.84375
vt 0.015625 0.84375
vt 0.015625 0.859375
vt 0.421875 0.828125
vt 0.4375 0.828125
vt 0.4375 0.84375
vt 0.421875 0.84375
vt 0.3347234375 0.9831609375
vt 0.3190984375 0.9831609375
vt 0.3190984375 0.8894109375
vt 0.3347234375 0.8894109375
vt 0.3190984375 0.9831609375
vt 0.3347234375 0.9831609375
vt 0.3347234375 0.9987859375
vt 0.3190984375 0.9987859375
vt 0.171875 0.734375
vt 0.1875 0.734375
vt 0.1875 0.75
vt 0.171875 0.75
vt 0.203125 0.890625
vt 0.1875 0.890625
vt 0.1875 0.875
vt 0.203125 0.875
vt 0.359375 0.484375
vt 0.359375 0.5625
vt 0.34375 0.5625
vt 0.34375 0.484375
vt 0.1875 0.796875
vt 0.203125 0.796875
vt 0.203125 0.8125
vt 0.1875 0.8125
vt 0.28125 0.75
vt 0.28125 0.734375
vt 0.296875 0.734375
vt 0.296875 0.75
vt 0.015625 0.765625
vt 0.015625 0.84375
vt 0 0.84375
vt 0 0.765625
vt 0.296875 0.65625
vt 0.296875 0.734375
vt 0.28125 0.734375
vt 0.28125 0.65625
vt 0.46875 0.78125
vt 0.46875 0.859375
vt 0.453125 0.859375
vt 0.453125 0.78125
vt 0.390625 0.546875
vt 0.375 0.546875
vt 0.375 0.46875
vt 0.390625 0.46875
vt 0.4375 0.828125
vt 0.421875 0.828125
vt 0.421875 0.75
vt 0.4375 0.75
vt 0.1875 0.734375
vt 0.171875 0.734375
vt 0.171875 0.65625
vt 0.1875 0.65625
vt 0.421875 0.546875
vt 0.40625 0.546875
vt 0.40625 0.46875
vt 0.421875 0.46875
vt 0.28125 0.75
vt 0.1875 0.75
vt 0.1875 0.734375
vt 0.28125 0.734375
vt 0.140625 0.609375
vt 0.140625 0.515625
vt 0.15625 0.515625
vt 0.15625 0.609375
vt 0.09375 0.5625
vt 0 0.5625
vt 0 0.546875
vt 0.09375 0.546875
vt 0.3347234375 0.8894109375
vt 0.344375 0.8978484375
vt 0.344375 0.9747234375
vt 0.3347234375 0.9831609375
vt 0.296875 0.875
vt 0.28125 0.875
vt 0.28125 0.75
vt 0.296875 0.75
vt 0.125 0.734375
vt 0.109375 0.734375
vt 0.109375 0.609375
vt 0.125 0.609375
vt 0.234375 0.703125
vt 0.21875 0.703125
vt 0.21875 0.578125
vt 0.234375 0.578125
vt 0.015625 0.984375
vt 0 0.984375
vt 0 0.859375
vt 0.015625 0.859375
vt 0.328125 0.734375
vt 0.3125 0.734375
vt 0.3125 0.71875
vt 0.328125 0.71875
vt 0.28125 0.875
vt 0.296875 0.875
vt 0.296875 0.890625
vt 0.28125 0.890625
vt 0.109375 0.734375
vt 0.125 0.734375
vt 0.125 0.75
vt 0.109375 0.75
vt 0 0.984375
vt 0.015625 0.984375
vt 0.015625 1
vt 0 1
vt 0.015625 0.984375
vt 0.034374999999999996 0.984375
vt 0.034374999999999996 1
vt 0.015625 1
vt 0.046875 0.78125
vt 0.0625 0.78125
vt 0.0625 0.796875
vt 0.046875 0.796875
vt 0.109375 0.75
vt 0.09062500000000001 0.75
vt 0.09062500000000001 0.734375
vt 0.109375 0.734375
vt 0.328125 0.71875
vt 0.346875 0.71875
vt 0.346875 0.734375
vt 0.328125 0.734375
vt 0.09375 0.796875
vt 0.078125 0.796875
vt 0.078125 0.78125
vt 0.09375 0.78125
vt 0.234375 0.890625
vt 0.21875 0.890625
vt 0.21875 0.875
vt 0.234375 0.875
vt 0.203125 0.78125
vt 0.1875 0.78125
vt 0.1875 0.765625
vt 0.203125 0.765625
vt 0.234375 0.8125
vt 0.21875 0.8125
vt 0.21875 0.796875
vt 0.234375 0.796875
vt 0.015625 0.734375
vt 0.034375 0.734375
vt 0.034375 0.75
vt 0.015625 0.75
vt 0.034375 0.734375
vt 0.053125000000000006 0.734375
vt 0.053125000000000006 0.75
vt 0.034375 0.75
vt 0.053125000000000006 0.734375
vt 0.071875 0.734375
vt 0.071875 0.75
vt 0.053125000000000006 0.75
vt 0.071875 0.734375
vt 0.09062500000000001 0.734375
vt 0.09062500000000001 0.75
vt 0.071875 0.75
vt 0.421875 0.734375
vt 0.403125 0.734375
vt 0.403125 0.71875
vt 0.421875 0.71875
vt 0.403125 0.734375
vt 0.384375 0.734375
vt 0.384375 0.71875
vt 0.403125 0.71875
vt 0.384375 0.734375
vt 0.365625 0.734375
vt 0.365625 0.71875
vt 0.384375 0.71875
vt 0.365625 0.734375
vt 0.346875 0.734375
vt 0.346875 0.71875
vt 0.365625 0.71875
vt 0.109375 1
vt 0.090625 1
vt 0.090625 0.984375
vt 0.109375 0.984375
vt 0.090625 1
vt 0.071875 1
vt 0.071875 0.984375
vt 0.090625 0.984375
vt 0.071875 1
vt 0.053125 1
vt 0.053125 0.984375
vt 0.071875 0.984375
vt 0.053125 1
vt 0.034374999999999996 1
vt 0.034374999999999996 0.984375
vt 0.053125 0.984375
vt 0.034374999999999996 0.859375
vt 0.053125 0.859375
vt 0.053125 0.984375
vt 0.034374999999999996 0.984375
vt 0.25 0.578125
vt 0.265625 0.578125
vt 0.265625 0.703125
vt 0.25 0.703125
vt 0.071875 0.609375
vt 0.09062500000000001 0.609375
vt 0.09062500000000001 0.734375
vt 0.071875 0.734375
vt 0.3125 0.578125
vt 0.328125 0.578125
vt 0.328125 0.703125
vt 0.3125 0.703125
vt 0.071875 0.859375
vt 0.090625 0.859375
vt 0.090625 0.984375
vt 0.071875 0.984375
vt 0.34375 0.578125
vt 0.359375 0.578125
vt 0.359375 0.703125
vt 0.34375 0.703125
vt 0.034375 0.609375
vt 0.053125000000000006 0.609375
vt 0.053125000000000006 0.734375
vt 0.034375 0.734375
vt 0.171875 0.515625
vt 0.1875 0.515625
vt 0.1875 0.640625
vt 0.171875 0.640625
vn 0 1 0
vn 0 1 0
vn 0 1 0
vn 0 0 1
vn 0 0 -1
vn 0 1 0
vn 0 1 0
vn 1 0 0
vn 0 -1 0
vn 1 0 0
vn 0 -1 0
vn 1 0 0
vn 0 0 1
vn 1 0 0
vn 0 0 -1
vn 1 0 0
vn 0 0 -1
vn 1 0 0
vn 0 0 1
vn 0 0 -1
vn 0 1 0
vn 0 0 -1
vn 1 0 0
vn 0 -1 0
vn 1 0 0
vn 0 0 1
vn 0 1 0
vn 0 0 1
vn 0 1 0
vn 0.48564293117863516 0.8741572761215362 0
vn 0 0.8741572761215362 -0.48564293117863516
vn 0 0.8741572761215362 0.48564293117863516
vn 1 0 0
vn 0 0 -1
vn -1 0 0
vn 0 0 1
vn 0 1 0
vn 1 0 0
vn 0 0 -1
vn 0 0 1
vn 0 0 1
vn 0 0 -1
vn 0 1 0
vn 0 1 0
vn -1 0 0
vn 0 -1 0
vn -1 0 0
vn 0 -1 0
vn -1 0 0
vn 0 0 1
vn -1 0 0
vn 0 0 -1
vn -1 0 0
vn 0 0 -1
vn -1 0 0
vn 0 0 1
vn -1 0 0
vn 0 -1 0
vn -1 0 0
vn -0.48564293117863516 0.8741572761215362 0
vn -1 0 0
vn 0 0 -1
vn 1 0 0
vn 0 0 1
vn 0 1 0
vn -1 0 0
vn 0 0 -1
vn 0 0 1
vn 0 0 1
vn 0 -1 0
vn 0 0 -1
vn 0 1 0
vn 0 -1 0
vn 0 -1 0
vn 0 -1 0
vn 0 -1 0
vn 0 0 -1
vn 0 0 -1
vn 0 0 -1
vn 0 0 -1
vn 0 1 0
vn 0 1 0
vn 0 1 0
vn 0 1 0
vn 0 0 1
vn 0 0 1
vn 0 0 1
vn 0 0 1
vn 0 0 1
vn -1 0 0
vn 0 0 -1
vn 1 0 0
vn 0 0 1
vn -1 0 0
vn 0 0 -1
vn 1 0 0
usemtl m_2e2e1bcc-83fa-6333-c652-d11840d8fbe6
f 5/1/1 9/2/1 43/3/1 39/4/1
f 25/5/2 26/6/2 60/7/2 59/8/2
f 40/9/3 47/10/3 13/11/3 6/12/3
f 17/13/4 18/14/4 1/15/4 5/16/4
f 2/17/5 22/18/5 21/19/5 6/20/5
f 10/21/6 14/22/6 13/23/6 9/24/6
f 6/25/7 13/26/7 14/27/7 2/28/7
f 14/29/8 23/30/8 22/31/8 2/32/8
f 4/33/9 15/34/9 16/35/9 7/36/9
f 20/37/10 17/38/10 8/39/10 12/40/10
f 8/41/11 12/42/11 11/43/11 3/44/11
f 18/45/12 19/46/12 10/47/12 1/48/12
f 18/49/13 17/50/13 8/51/13 3/52/13
f 19/53/14 18/54/14 3/55/14 11/56/14
f 20/57/15 19/58/15 11/59/15 12/60/15
f 7/61/16 21/62/16 24/63/16 16/64/16
f 7/65/17 21/66/17 22/67/17 4/68/17
f 4/69/18 22/70/18 23/71/18 15/72/18
f 15/73/19 23/74/19 24/75/19 16/76/19
f 21/77/20 55/78/20 40/79/20 6/80/20
f 24/81/21 21/82/21 55/83/21 58/84/21
f 24/85/22 58/86/22 47/87/22 13/88/22
f 23/89/23 14/90/23 10/91/23 19/92/23
f 24/93/24 23/94/24 19/95/24 20/96/24
f 24/97/25 13/98/25 9/99/25 20/100/25
f 54/101/26 20/102/26 9/103/26 43/104/26
f 51/105/27 17/106/27 20/107/27 54/108/27
f 39/109/28 51/110/28 17/111/28 5/112/28
f 24/113/29 58/114/29 54/115/29 20/116/29
f 26/117/30 25/118/30 9/119/30 13/120/30
f 60/121/31 26/122/31 13/123/31 47/124/31
f 25/125/32 59/126/32 43/127/32 9/128/32
f 10/129/33 32/130/33 31/131/33 1/132/33
f 9/133/34 33/134/34 32/135/34 10/136/34
f 5/137/35 34/138/35 33/139/35 9/140/35
f 1/141/36 31/142/36 34/143/36 5/144/36
f 27/145/37 29/146/37 28/147/37 30/148/37
f 27/149/38 31/150/38 32/151/38 29/152/38
f 29/153/39 32/154/39 33/155/39 28/156/39
f 30/157/40 34/158/40 31/159/40 27/160/40
f 35/161/41 52/162/41 51/163/41 39/164/41
f 55/165/42 56/166/42 36/167/42 40/168/42
f 47/169/43 48/170/43 44/171/43 43/172/43
f 48/173/44 47/174/44 40/175/44 36/176/44
f 56/177/45 57/178/45 48/179/45 36/180/45
f 50/181/46 49/182/46 38/183/46 41/184/46
f 42/185/47 51/186/47 54/187/47 46/188/47
f 45/189/48 46/190/48 42/191/48 37/192/48
f 44/193/49 53/194/49 52/195/49 35/196/49
f 42/197/50 51/198/50 52/199/50 37/200/50
f 37/201/51 52/202/51 53/203/51 45/204/51
f 45/205/52 53/206/52 54/207/52 46/208/52
f 58/209/53 55/210/53 41/211/53 50/212/53
f 56/213/54 55/214/54 41/215/54 38/216/54
f 57/217/55 56/218/55 38/219/55 49/220/55
f 58/221/56 57/222/56 49/223/56 50/224/56
f 44/225/57 48/226/57 57/227/57 53/228/57
f 53/229/58 57/230/58 58/231/58 54/232/58
f 43/233/59 47/234/59 58/235/59 54/236/59
f 43/237/60 59/238/60 60/239/60 47/240/60
f 65/241/61 66/242/61 44/243/61 35/244/61
f 66/245/62 67/246/62 43/247/62 44/248/62
f 67/249/63 68/250/63 39/251/63 43/252/63
f 68/253/64 65/254/64 35/255/64 39/256/64
f 62/257/65 63/258/65 61/259/65 64/260/65
f 66/261/66 65/262/66 61/263/66 63/264/66
f 67/265/67 66/266/67 63/267/67 62/268/67
f 65/269/68 68/270/68 64/271/68 61/272/68
f 68/273/69 75/274/69 84/275/69 64/276/69
f 67/277/70 76/278/70 75/279/70 68/280/70
f 62/281/71 80/282/71 76/283/71 67/284/71
f 64/285/72 84/286/72 80/287/72 62/288/72
f 34/289/73 69/290/73 70/291/73 33/292/73
f 89/293/74 90/294/74 91/295/74 92/296/74
f 71/297/75 73/298/75 74/299/75 72/300/75
f 85/301/76 86/302/76 87/303/76 88/304/76
f 33/305/77 70/306/77 77/307/77 28/308/77
f 70/309/78 72/310/78 78/311/78 77/312/78
f 72/313/79 74/314/79 79/315/79 78/316/79
f 74/317/80 76/318/80 80/319/80 79/320/80
f 28/321/81 77/322/81 81/323/81 30/324/81
f 77/325/82 78/326/82 82/327/82 81/328/82
f 78/329/83 79/330/83 83/331/83 82/332/83
f 79/333/84 80/334/84 84/335/84 83/336/84
f 30/337/85 81/338/85 69/339/85 34/340/85
f 81/341/86 82/342/86 71/343/86 69/344/86
f 82/345/87 83/346/87 73/347/87 71/348/87
f 83/349/88 84/350/88 75/351/88 73/352/88
f 86/353/89 85/354/89 73/355/89 75/356/89
f 87/357/90 86/358/90 75/359/90 76/360/90
f 88/361/91 87/362/91 76/363/91 74/364/91
f 85/365/92 88/366/92 74/367/92 73/368/92
f 90/369/93 89/370/93 69/371/93 71/372/93
f 91/373/94 90/374/94 71/375/94 72/376/94
f 92/377/95 91/378/95 72/379/95 70/380/95
f 89/381/96 92/382/96 70/383/96 69/384/96